<svg version="1.1" id="svg9969" xmlns:x="ns_extend;" xmlns:i="ns_ai;" xmlns:graph="ns_graphs;" inkscape:version="0.92.0 r15299" xmlns:cc="http://creativecommons.org/ns#" xmlns:dc="http://purl.org/dc/elements/1.1/" xmlns:inkscape="http://www.inkscape.org/namespaces/inkscape" xmlns:rdf="http://www.w3.org/1999/02/22-rdf-syntax-ns#" xmlns:sodipodi="http://sodipodi.sourceforge.net/DTD/sodipodi-0.dtd" xmlns:svg="http://www.w3.org/2000/svg" xmlns="http://www.w3.org/2000/svg" xmlns:xlink="http://www.w3.org/1999/xlink" x="0px" y="0px" viewBox="0 0 55 55" style="enable-background:new 0 0 55 55;" xml:space="preserve">
 <style type="text/css">
  .st0{fill:#00B5EF;}
 </style>
 <metadata id="metadata9966">
  <sfw xmlns="ns_sfw;">
   <slices>
   </slices>
   <sliceSourceBounds bottomLeftOrigin="true" height="55" width="55" x="-55.4" y="0.5">
   </sliceSourceBounds>
  </sfw>
 </metadata>
 <sodipodi:namedview bordercolor="#666666" borderopacity="1.0" fit-margin-bottom="0" fit-margin-left="0" fit-margin-right="0" fit-margin-top="0" id="base" inkscape:current-layer="layer1" inkscape:cx="52.314394" inkscape:cy="17.922669" inkscape:document-units="mm" inkscape:pageopacity="0.0" inkscape:pageshadow="2" inkscape:window-height="744" inkscape:window-maximized="1" inkscape:window-width="1280" inkscape:window-x="-4" inkscape:window-y="-4" inkscape:zoom="7.6651943" pagecolor="#ffffff" showgrid="false" units="px">
 </sodipodi:namedview>
 <g id="layer1" transform="translate(-33.783483,-175.57671)" inkscape:groupmode="layer" inkscape:label="Layer 1">
  <g id="g9996" transform="translate(0.13229192,-0.13228808)">
   <path id="path2878" inkscape:connector-curvature="0" class="st0" d="M61.2,175.7c-15.2,0-27.5,12.3-27.5,27.6
			c0,14.3,10.8,26,24.7,27.4v-20c-3-1.1-5.1-4-5.1-7.4c0-4.4,3.6-7.9,7.9-7.9c4.4,0,7.9,3.6,7.9,7.9c0,3.4-2.1,6.3-5.1,7.4v20
			c13.9-1.4,24.7-13.2,24.7-27.4C88.7,188.1,76.4,175.7,61.2,175.7">
   </path>
  </g>
 </g>
</svg>